<svg width="173" height="175" viewBox="0 0 173 175" fill="none" xmlns="http://www.w3.org/2000/svg">
<path d="M78.8284 0.430068C11.3284 6.83007 -25.0016 87.1801 19.7084 142.05C19.7084 142.05 19.7084 142.05 19.6984 142.05C40.3584 167.51 74.8584 180.1 108.868 171.34C127.088 166.64 142.838 156.22 154.068 142.67C203.078 83.7601 156.918 -7.00993 78.8284 0.430068Z" fill="url(#paint0_radial_12_287)"/>
<path d="M148.858 92.8801C146.008 123.78 120.228 150.21 86.0384 150.21C43.3484 150.21 13.1484 108.62 25.8984 68.2801C30.2884 54.3001 39.5784 42.0401 52.2284 33.9801C54.8484 32.3201 57.6184 30.8301 60.5084 29.5401C93.2984 14.9901 131.878 30.8401 144.858 64.5101C148.498 73.9801 149.708 83.6301 148.858 92.8801Z" fill="url(#paint1_radial_12_287)"/>
<path d="M115.748 142.77C106.898 147.51 96.7784 150.2 86.0284 150.2C61.5384 150.2 40.3084 136.23 29.8784 115.82C34.2984 118.08 42.4484 121.67 51.9184 123.14C65.6584 125.27 82.2884 122.48 90.1084 126.48C103.148 133.15 105.268 140.81 115.748 142.77Z" fill="url(#paint2_linear_12_287)"/>
<path d="M62.6784 113.87C50.5484 114.7 33.6984 108.96 25.8584 105.97C24.0084 100.03 23.0084 93.7201 23.0084 87.1801C23.0084 84.8301 23.1384 82.5101 23.3884 80.2301C26.8084 84.2801 34.6484 92.7301 44.5084 97.9301C57.8584 104.98 78.9884 112.76 62.6784 113.87Z" fill="url(#paint3_linear_12_287)"/>
<path d="M140.098 119.59C137.728 123.54 134.928 127.21 131.778 130.54C123.688 128.33 114.668 124.33 107.358 118.14C94.3484 107.13 92.5284 102.2 62.4984 92.5601C41.5484 85.8301 30.5184 74.7801 25.7684 68.7101C27.2484 63.8701 29.2984 59.2701 31.8484 55.0001C37.7984 61.4301 50.9884 74.0301 67.6984 79.9501C90.6884 88.1101 94.3884 87.3601 115.148 106.27C123.988 114.34 132.848 118.02 140.098 119.59Z" fill="url(#paint4_linear_12_287)"/>
<path d="M149.058 87.1801C149.058 94.2501 147.898 101.04 145.748 107.38C139.658 107.25 130.228 104.74 119.578 93.6701C101.038 74.3901 73.6084 70.6801 73.2384 64.3801C72.8684 58.0801 101.418 63.2701 118.838 72.9101C131.368 79.8501 140.648 84.8601 149.008 84.6401C149.038 85.4801 149.058 86.3301 149.058 87.1801Z" fill="url(#paint5_linear_12_287)"/>
<path d="M60.2684 52.1501C52.7184 48.6301 43.9584 48.0701 43.5884 51.0401C43.2184 54.0101 48.7784 63.6401 58.7884 61.7901C68.7884 59.9301 65.8284 54.7401 60.2684 52.1501Z" fill="url(#paint6_linear_12_287)"/>
<path d="M144.858 64.5101C135.498 58.8201 119.528 54.9201 94.7484 49.1801C73.8984 44.3501 64.6084 35.7501 60.5084 29.5401C65.8184 27.1901 71.5084 25.5401 77.4684 24.7301C82.0284 29.0601 91.4384 34.9901 110.688 39.9101C121.618 42.7001 130.108 46.1501 136.608 49.5701C139.998 54.1201 142.778 59.1401 144.858 64.5101Z" fill="url(#paint7_linear_12_287)"/>
<path d="M114.758 127.78C111.508 125.99 100.298 119.62 107.348 132.6C110.118 137.7 122.178 131.86 114.758 127.78Z" fill="url(#paint8_linear_12_287)"/>
<path d="M99.5584 121.1C98.0384 121.21 98.8184 124.44 100.298 124.81C101.788 125.18 104.758 120.73 99.5584 121.1Z" fill="url(#paint9_linear_12_287)"/>
<path opacity="0.45" d="M145.738 107.41C144.288 111.7 142.388 115.77 140.098 119.59C137.728 123.54 134.928 127.21 131.778 130.54C127.148 135.43 121.738 139.57 115.758 142.77C106.908 147.51 96.7884 150.2 86.0384 150.2C61.5484 150.2 40.3184 136.23 29.8884 115.82C28.2784 112.68 26.9284 109.39 25.8684 105.97C24.0184 100.03 23.0184 93.7201 23.0184 87.1801C23.0184 84.8301 23.1484 82.5101 23.3984 80.2301C23.8284 76.2701 24.6284 72.4101 25.7684 68.7001C25.8084 68.5601 25.8584 68.4101 25.8984 68.2701C35.0584 58.4401 52.3484 64.0801 61.0184 76.9801C74.0284 96.3601 105.128 154.1 145.738 107.41Z" fill="url(#paint10_linear_12_287)"/>
<path opacity="0.55" d="M146.018 106.56C144.878 110.27 142.768 115.15 140.098 119.59C111.688 166.91 40.8783 157.16 25.5583 104.95C33.4283 115.69 43.9983 123.82 58.0483 127.78C108.128 141.86 133.788 122.88 146.018 106.56Z" fill="url(#paint11_linear_12_287)"/>
<path d="M144.858 64.5101C148.508 73.9701 149.708 83.6301 148.858 92.8801C146.938 76.5701 138.858 50.0501 107.718 37.6901C84.8984 28.6301 65.7884 30.1101 52.2184 33.9801C54.8384 32.3201 57.6084 30.8301 60.4984 29.5401C93.2984 14.9901 131.878 30.8501 144.858 64.5101Z" fill="url(#paint12_linear_12_287)"/>
<defs>
<radialGradient id="paint0_radial_12_287" cx="0" cy="0" r="1" gradientUnits="userSpaceOnUse" gradientTransform="translate(87.124 87.0548) scale(74.5999 74.5999)">
<stop stop-color="#90DDEF"/>
<stop offset="1" stop-color="#A6D6F9" stop-opacity="0"/>
</radialGradient>
<radialGradient id="paint1_radial_12_287" cx="0" cy="0" r="1" gradientUnits="userSpaceOnUse" gradientTransform="translate(84.3611 62.6993) scale(63.0534 63.0534)">
<stop stop-color="#A0E2EA"/>
<stop offset="1" stop-color="#018ED9"/>
</radialGradient>
<linearGradient id="paint2_linear_12_287" x1="88.8616" y1="170.098" x2="36.5913" y2="37.1981" gradientUnits="userSpaceOnUse">
<stop stop-color="#7E31A6"/>
<stop offset="1" stop-color="#7731B1" stop-opacity="0.2"/>
</linearGradient>
<linearGradient id="paint3_linear_12_287" x1="73.6903" y1="176.065" x2="21.4201" y2="43.1653" gradientUnits="userSpaceOnUse">
<stop stop-color="#7E31A6"/>
<stop offset="1" stop-color="#7731B1" stop-opacity="0.2"/>
</linearGradient>
<linearGradient id="paint4_linear_12_287" x1="109.592" y1="161.945" x2="57.3213" y2="29.045" gradientUnits="userSpaceOnUse">
<stop stop-color="#295575" stop-opacity="0.53"/>
<stop offset="1" stop-color="#4DCDFC" stop-opacity="0.2"/>
</linearGradient>
<linearGradient id="paint5_linear_12_287" x1="140.648" y1="149.73" x2="88.3772" y2="16.8306" gradientUnits="userSpaceOnUse">
<stop stop-color="#EEEEEE"/>
<stop offset="1" stop-color="#B4E7F4" stop-opacity="0.2"/>
</linearGradient>
<linearGradient id="paint6_linear_12_287" x1="98.4206" y1="166.338" x2="46.1504" y2="33.4386" gradientUnits="userSpaceOnUse">
<stop stop-color="#7E31A6"/>
<stop offset="1" stop-color="#7731B1" stop-opacity="0.2"/>
</linearGradient>
<linearGradient id="paint7_linear_12_287" x1="142.748" y1="148.904" x2="90.4778" y2="16.0039" gradientUnits="userSpaceOnUse">
<stop stop-color="#DADADA"/>
<stop offset="1" stop-color="#B5E7DC"/>
</linearGradient>
<linearGradient id="paint8_linear_12_287" x1="122.154" y1="157.004" x2="69.8838" y2="24.1046" gradientUnits="userSpaceOnUse">
<stop stop-color="#7E31A6"/>
<stop offset="1" stop-color="#7731B1" stop-opacity="0.2"/>
</linearGradient>
<linearGradient id="paint9_linear_12_287" x1="115.247" y1="159.72" x2="62.9769" y2="26.8203" gradientUnits="userSpaceOnUse">
<stop stop-color="#9BD2FF"/>
<stop offset="1" stop-color="#7731B1" stop-opacity="0.2"/>
</linearGradient>
<linearGradient id="paint10_linear_12_287" x1="72.5963" y1="152.144" x2="91.2102" y2="60.4047" gradientUnits="userSpaceOnUse">
<stop stop-color="white"/>
<stop offset="1" stop-color="white" stop-opacity="0.3"/>
</linearGradient>
<linearGradient id="paint11_linear_12_287" x1="92.3915" y1="165.56" x2="85.3477" y2="101.795" gradientUnits="userSpaceOnUse">
<stop stop-color="#7BC4CB" stop-opacity="0.49"/>
<stop offset="1" stop-color="#9EA6A8" stop-opacity="0.1"/>
</linearGradient>
<linearGradient id="paint12_linear_12_287" x1="165" y1="-15.7741" x2="95.3029" y2="69.8643" gradientUnits="userSpaceOnUse">
<stop stop-color="#A4F6F6"/>
<stop offset="1" stop-color="#B5F4F9" stop-opacity="0"/>
</linearGradient>
</defs>
</svg>
