<svg width="144" height="144" viewBox="0 0 144 144" fill="none" xmlns="http://www.w3.org/2000/svg">
<path d="M65.0707 0.355909C9.3507 5.63591 -20.6393 71.9659 16.2707 117.266C33.3207 138.276 61.8007 148.676 89.8807 141.446C104.921 137.566 117.921 128.966 127.191 117.776C167.641 69.1459 129.541 -5.79409 65.0707 0.355909Z" fill="url(#paint0_radial_12_55)"/>
<path d="M127.491 71.8659C127.491 73.5059 127.421 75.1259 127.281 76.7359C127.151 78.2359 126.961 79.7159 126.711 81.1759C126.471 82.6059 126.171 84.0159 125.831 85.3959C124.821 89.4259 123.371 93.2859 121.541 96.9059C120.951 98.0659 120.321 99.2059 119.661 100.326C118.421 102.396 117.061 104.386 115.561 106.276C114.801 107.236 114.021 108.166 113.201 109.066C107.931 114.916 101.431 119.636 94.1207 122.826C93.5807 123.066 93.0307 123.286 92.4807 123.506C90.8507 124.156 89.1907 124.726 87.4907 125.226C86.2807 125.576 85.0607 125.886 83.8207 126.156C79.9907 126.986 76.0107 127.426 71.9307 127.426C56.1707 127.426 41.9507 120.866 31.8307 110.326C30.6307 109.076 29.4907 107.766 28.4107 106.406C26.2107 103.646 24.2807 100.666 22.6307 97.5159C22.2107 96.7159 21.8107 95.8959 21.4307 95.0659C20.0407 92.0559 18.9207 88.9059 18.0907 85.6359C16.9607 81.2259 16.3607 76.6059 16.3607 71.8459C16.3607 68.9159 16.5907 66.0459 17.0207 63.2459C17.1907 62.1659 17.3807 61.1059 17.6107 60.0559C17.8607 58.8759 18.1607 57.7159 18.4807 56.5659C19.0807 54.4559 19.8107 52.3859 20.6507 50.3859C22.1707 46.7559 24.0707 43.3159 26.2907 40.1259C27.6507 38.1759 29.1307 36.3159 30.7207 34.5559C33.7307 31.2359 37.1307 28.2859 40.8507 25.7659C40.9707 25.6859 41.0907 25.6059 41.2107 25.5259C43.6907 23.8759 46.3107 22.4259 49.0507 21.1859C54.4907 18.7259 60.3907 17.1159 66.5907 16.5359C68.3407 16.3659 70.1107 16.2859 71.9007 16.2859C77.2407 16.2859 82.4107 17.0459 87.3007 18.4459C89.3807 19.0459 91.4107 19.7559 93.3807 20.5859C94.1207 20.8959 94.8507 21.2159 95.5707 21.5559C98.5707 22.9659 101.421 24.6459 104.101 26.5459C107.001 28.6159 109.691 30.9459 112.141 33.5159C116.841 38.4559 120.641 44.2459 123.281 50.6459C123.611 51.4459 123.931 52.2659 124.221 53.0859C125.161 55.7059 125.911 58.4159 126.451 61.2059C127.141 64.6759 127.491 68.2359 127.491 71.8659Z" fill="url(#paint1_radial_12_55)"/>
<path d="M127.491 71.8659C127.491 76.5359 126.911 81.0659 125.831 85.3959C98.0807 73.4959 50.3607 95.3959 18.0907 85.6459C16.9607 81.2359 16.3607 76.6159 16.3607 71.8559C16.3607 68.9259 16.5907 66.0559 17.0207 63.2559C73.7307 83.3559 94.3507 55.3859 126.471 61.2359C127.141 64.6759 127.491 68.2359 127.491 71.8659Z" fill="url(#paint2_linear_12_55)"/>
<path d="M124.251 53.1159C94.0307 48.0259 58.8607 68.8659 18.5007 56.5759C19.1007 54.4659 19.8307 52.3959 20.6707 50.3959C53.4307 63.1459 92.9307 46.9059 123.311 50.6759C123.641 51.4859 123.961 52.2959 124.251 53.1159Z" fill="url(#paint3_linear_12_55)"/>
<path d="M112.171 33.5559C80.3907 53.1659 40.2507 44.1959 26.3107 40.1459C27.6707 38.1959 29.1507 36.3359 30.7407 34.5759C70.4207 44.6859 95.2007 32.4159 104.131 26.5859C107.031 28.6459 109.721 30.9859 112.171 33.5559Z" fill="url(#paint4_linear_12_55)"/>
<path d="M95.6007 21.5859C82.2407 30.2259 64.1507 24.4459 40.8707 25.7859C43.4607 24.0359 46.2007 22.5059 49.0707 21.2059C63.1607 21.8159 83.0507 26.4959 93.4107 20.6059C94.1507 20.9159 94.8807 21.2459 95.6007 21.5859Z" fill="url(#paint5_linear_12_55)"/>
<path d="M87.3407 18.4659C83.5807 20.2959 76.6007 21.8559 66.6307 16.5559C68.3807 16.3859 70.1507 16.3059 71.9407 16.3059C77.2807 16.3059 82.4407 17.0559 87.3407 18.4659Z" fill="url(#paint6_linear_12_55)"/>
<path d="M121.541 96.9059C120.951 98.0659 120.321 99.2059 119.661 100.326C95.7907 89.5159 51.7307 101.536 22.6407 97.5359C22.2207 96.7359 21.8207 95.9159 21.4407 95.0859C59.5707 99.7959 100.921 84.2659 121.541 96.9059Z" fill="url(#paint7_linear_12_55)"/>
<path d="M87.4907 125.216C86.2807 125.566 85.0607 125.876 83.8207 126.146C73.5607 124.476 41.8607 106.506 31.8307 110.326C30.6307 109.076 29.4907 107.766 28.4107 106.406C50.6907 106.186 74.2207 124.156 87.4907 125.216Z" fill="url(#paint8_linear_12_55)"/>
<path d="M113.211 109.066C107.941 114.916 101.441 119.636 94.1307 122.826C83.6507 119.656 77.6007 113.456 73.9407 111.706C68.5907 109.136 66.9807 107.086 87.5907 105.546C98.0907 104.746 107.001 106.836 113.211 109.066Z" fill="url(#paint9_linear_12_55)"/>
<path opacity="0.45" d="M126.721 81.1759C123.051 103.156 106.171 121.266 83.8307 126.156C44.1607 134.786 9.0707 99.4659 17.6307 60.0759C22.2307 68.7759 32.4607 78.0559 54.7807 81.5159C88.5607 86.7359 110.561 77.4259 126.721 81.1759Z" fill="url(#paint10_linear_12_55)"/>
<path opacity="0.55" d="M114.671 107.376C114.201 107.946 113.711 108.516 113.211 109.066C107.941 114.916 101.441 119.636 94.1307 122.826C93.5907 123.066 93.0407 123.286 92.4907 123.506C90.8607 124.156 89.2007 124.726 87.5007 125.226C86.2907 125.576 85.0707 125.886 83.8307 126.156C80.0007 126.986 76.0207 127.426 71.9407 127.426C56.1807 127.426 41.9607 120.866 31.8407 110.326C30.8107 109.246 29.8207 108.136 28.8807 106.976C38.0107 110.406 51.2607 111.096 70.4707 106.346C87.3507 102.166 102.081 103.306 114.671 107.376Z" fill="url(#paint11_linear_12_55)"/>
<path d="M127.491 71.8659C127.491 73.5059 127.421 75.1259 127.281 76.7359C127.121 64.2059 122.791 49.2159 107.581 36.1659C78.3807 11.1059 48.7607 22.0959 41.2407 25.5459C43.7207 23.8959 46.3407 22.4459 49.0807 21.2059C54.5207 18.7459 60.4207 17.1359 66.6207 16.5559C68.3707 16.3859 70.1407 16.3059 71.9307 16.3059C77.2707 16.3059 82.4407 17.0659 87.3307 18.4659C89.4107 19.0659 91.4407 19.7759 93.4107 20.6059C94.1507 20.9159 94.8807 21.2359 95.6007 21.5759C98.6007 22.9859 101.451 24.6659 104.131 26.5659C107.031 28.6359 109.721 30.9659 112.171 33.5359C116.871 38.4759 120.671 44.2659 123.311 50.6659C123.641 51.4659 123.961 52.2859 124.251 53.1059C125.191 55.7259 125.941 58.4359 126.481 61.2259C127.141 64.6759 127.491 68.2359 127.491 71.8659Z" fill="url(#paint12_linear_12_55)"/>
<defs>
<radialGradient id="paint0_radial_12_55" cx="0" cy="0" r="1" gradientUnits="userSpaceOnUse" gradientTransform="translate(71.9216 71.8609) scale(66.5513 66.5513)">
<stop stop-color="#520102"/>
<stop offset="1" stop-color="#642F08" stop-opacity="0"/>
</radialGradient>
<radialGradient id="paint1_radial_12_55" cx="0" cy="0" r="1" gradientUnits="userSpaceOnUse" gradientTransform="translate(63.1095 40.4899) scale(91.0224 91.0224)">
<stop stop-color="#4B0506"/>
<stop offset="1" stop-color="#F22749"/>
</radialGradient>
<linearGradient id="paint2_linear_12_55" x1="62.1787" y1="3.9241" x2="84.2916" y2="157.925" gradientUnits="userSpaceOnUse">
<stop stop-color="#FFBB71"/>
<stop offset="1" stop-color="#FFBB71" stop-opacity="0"/>
</linearGradient>
<linearGradient id="paint3_linear_12_55" x1="64.0261" y1="3.6587" x2="86.1389" y2="157.659" gradientUnits="userSpaceOnUse">
<stop stop-color="#FFBB71"/>
<stop offset="1" stop-color="#FFBB71" stop-opacity="0"/>
</linearGradient>
<linearGradient id="paint4_linear_12_55" x1="64.4698" y1="3.59501" x2="86.5826" y2="157.596" gradientUnits="userSpaceOnUse">
<stop stop-color="#FFBB71"/>
<stop offset="1" stop-color="#FFBB71" stop-opacity="0"/>
</linearGradient>
<linearGradient id="paint5_linear_12_55" x1="65.3362" y1="3.4703" x2="87.4492" y2="157.472" gradientUnits="userSpaceOnUse">
<stop stop-color="#FFBB71"/>
<stop offset="1" stop-color="#FFBB71" stop-opacity="0"/>
</linearGradient>
<linearGradient id="paint6_linear_12_55" x1="74.7696" y1="2.11571" x2="96.8826" y2="156.118" gradientUnits="userSpaceOnUse">
<stop stop-color="#FFBB71"/>
<stop offset="1" stop-color="#FFBB71" stop-opacity="0"/>
</linearGradient>
<linearGradient id="paint7_linear_12_55" x1="58.3515" y1="4.47361" x2="80.4643" y2="158.475" gradientUnits="userSpaceOnUse">
<stop/>
<stop offset="1" stop-color="#FFBB71" stop-opacity="0"/>
</linearGradient>
<linearGradient id="paint8_linear_12_55" x1="42.2987" y1="6.77822" x2="64.4117" y2="160.779" gradientUnits="userSpaceOnUse">
<stop stop-color="#680101"/>
<stop offset="1" stop-color="#6B0C05" stop-opacity="0"/>
</linearGradient>
<linearGradient id="paint9_linear_12_55" x1="76.4417" y1="1.87631" x2="98.5546" y2="155.877" gradientUnits="userSpaceOnUse">
<stop stop-color="#FFBB71"/>
<stop offset="1" stop-color="#FFBB71" stop-opacity="0"/>
</linearGradient>
<linearGradient id="paint10_linear_12_55" x1="64.1273" y1="126.408" x2="75.0883" y2="49.681" gradientUnits="userSpaceOnUse">
<stop stop-color="#D8274D"/>
<stop offset="1" stop-color="#F22749" stop-opacity="0"/>
</linearGradient>
<linearGradient id="paint11_linear_12_55" x1="73.8601" y1="125.98" x2="69.6597" y2="88.1762" gradientUnits="userSpaceOnUse">
<stop stop-color="#A9273E"/>
<stop offset="1" stop-color="#B62738" stop-opacity="0"/>
</linearGradient>
<linearGradient id="paint12_linear_12_55" x1="123.598" y1="4.34831" x2="81.5941" y2="54.3113" gradientUnits="userSpaceOnUse">
<stop stop-color="#FFECB8"/>
<stop offset="1" stop-color="#FFD371" stop-opacity="0.2"/>
</linearGradient>
</defs>
</svg>
