<svg width="224" height="238" viewBox="0 0 224 238" fill="none" xmlns="http://www.w3.org/2000/svg">
<path d="M107.665 0.588983C15.4677 9.33214 -34.1442 119.076 26.9166 194.029C55.1249 228.8 102.253 246.003 148.715 234.029C173.612 227.608 195.116 213.393 210.442 194.877C277.379 114.412 214.339 -9.58781 107.665 0.588983Z" fill="url(#paint0_radial_12_70)"/>
<path d="M209.611 118.692C209.611 124.063 209.147 129.333 208.258 134.442C207.774 137.188 207.188 139.894 206.482 142.559C202.564 157.178 195.134 170.343 185.159 181.126C181.544 185.043 177.587 188.638 173.326 191.868C169.409 194.857 165.229 197.542 160.847 199.884C154.911 203.055 148.591 205.579 141.968 207.396C134.234 209.516 126.097 210.627 117.697 210.627C113.84 210.627 110.044 210.384 106.329 209.92C75.1928 206.083 48.8623 186.659 35.4144 159.702C30.1644 149.202 26.8732 137.572 26.0049 125.275C25.8434 123.094 25.7626 120.893 25.7626 118.692C25.7626 104.82 28.8318 91.6752 34.324 79.8831C39.2307 69.3428 46.096 59.8929 54.4151 51.9978C62.1083 44.6883 71.0736 38.6913 80.9475 34.3904C92.1945 29.4837 104.633 26.7578 117.677 26.7578C157.314 26.7578 191.095 51.8363 203.998 87.0109C207.208 95.7742 209.127 105.143 209.531 114.936C209.591 116.168 209.611 117.42 209.611 118.692Z" fill="url(#paint1_radial_12_70)"/>
<path d="M35.3947 159.702C34.7688 158.45 34.163 157.158 33.5976 155.866C29.4179 146.436 26.7929 136.199 26.0054 125.436C26.0054 125.376 26.0054 125.335 25.9852 125.275C27.8429 125.032 30.3871 125.881 32.2448 131.11C34.6476 137.915 45.834 154.493 35.3947 159.702Z" fill="#F79C41"/>
<path d="M107.602 144.074C107.481 144.821 107.218 145.527 106.834 146.174C103.907 151.424 93.7096 154.008 82.3414 152.049C72.4473 150.333 64.5522 145.649 62.008 140.56C61.2609 139.066 60.9782 137.552 61.2407 136.037C62.3917 129.414 73.5175 127.819 86.3193 130.06C99.121 132.261 108.753 137.451 107.602 144.074Z" fill="#F79C41"/>
<path d="M80.3625 100.297L80.3423 100.317C77.7981 104.154 69.8626 100.64 60.6349 94.6031C53.1032 89.6762 47.7321 84.7695 47.3687 81.034C47.2879 80.1859 47.4697 79.3782 47.9341 78.6513C50.4783 74.7745 60.5743 74.512 69.8223 80.5696C79.0702 86.6272 82.9067 96.4203 80.3625 100.297Z" fill="#F79C41"/>
<path d="M182.211 156.916C174.76 163.135 165.835 164.73 162.302 160.47C162.12 160.247 161.958 160.025 161.817 159.783C159.111 155.361 162.342 147.425 169.409 141.55C176.598 135.553 185.139 133.856 188.915 137.552C189.056 137.693 189.198 137.834 189.319 137.976C192.852 142.236 189.682 150.717 182.211 156.916Z" fill="#F79C41"/>
<path d="M128.46 105.931C120.928 111.887 113.275 115.179 108.894 109.646C108.47 109.121 108.126 108.556 107.824 107.95C105.037 102.337 107.783 94.1992 114.608 88.8079C122.14 82.8513 132.418 80.0446 139.424 88.9089C139.465 88.9695 139.525 89.03 139.545 89.0906C143.665 94.5627 135.931 100.035 128.46 105.931Z" fill="#F79C41"/>
<path d="M95.4533 86.1718C90.1064 73.6181 76.1721 90.3901 73.5727 82.9989C73.3174 82.2946 73.1615 81.577 73.0626 80.8317C70.3186 66.9289 75.5404 57.0973 87.1034 63.1917C107.203 49.0232 114.082 55.0089 113.115 72.2681C113.136 72.3463 113.177 72.4318 113.176 72.5027C123.537 73.4864 122.866 69.0252 121.857 76.0121C120.847 82.9989 100.8 98.7256 95.4533 86.1718Z" fill="url(#paint2_linear_12_70)"/>
<path d="M86.8653 147.402C81.457 154.477 49.9223 150.966 47.323 143.575C47.0677 142.871 46.9117 142.153 46.8128 141.408C44.0688 127.505 49.2906 117.673 60.8536 123.768C80.9528 109.599 87.8319 115.585 86.8653 132.844C86.8857 132.923 95.6076 127.139 95.6069 127.21C124.171 129.922 92.2735 140.327 86.8653 147.402Z" fill="#DAD0C6"/>
<path d="M162.087 170.978C156.679 178.054 142.806 175.197 140.207 167.806C139.951 167.101 139.795 166.384 139.696 165.638C136.953 151.736 142.174 141.904 153.737 147.998C173.836 133.83 180.716 139.816 179.749 157.075C179.769 157.153 179.811 157.238 179.81 157.309C208.375 160.021 167.495 163.903 162.087 170.978Z" fill="#DAD0C6"/>
<path d="M98.3739 189.122C97.2836 190.172 95.123 190.758 91.7307 190.596C79.2924 190.051 65.7839 174.907 69.5599 170.041C69.6204 169.96 69.681 169.899 69.7416 169.839C73.6588 165.417 83.4722 173.372 88.4798 175.997C96.7384 180.318 101.261 186.356 98.3739 189.122Z" fill="#F79C41"/>
<path d="M147.158 177.956C147.178 180.823 143.281 183.852 137.143 184.114C125.916 184.599 119.515 182.439 118.001 178.44C117.839 178.016 117.738 177.572 117.677 177.088C117.132 172.221 127.41 173.049 132.822 172.767C142.978 172.221 147.138 175.008 147.158 177.956Z" fill="#F79C41"/>
<path d="M181.181 113.442C179.95 115.28 177.567 116.532 174.478 116.532C164.745 116.532 151.761 109.505 153.397 103.003C153.579 102.256 153.861 101.61 154.185 101.085C156.688 97.0463 163.008 99.0049 169.086 100.297C181.242 102.882 183.847 109.505 181.181 113.442Z" fill="url(#paint3_linear_12_70)"/>
<path d="M149.581 65.688C149.46 65.4053 149.399 65.0823 149.359 64.739C149.117 61.9727 151.843 57.9343 157.153 56.4805C160.606 55.5314 165.27 55.6526 168.158 57.4295C169.43 58.217 170.338 59.3074 170.682 60.8016C171.489 64.5169 151.297 69.9889 149.581 65.688Z" fill="#F79C41"/>
<path d="M94.0931 57.0862C93.4066 57.4901 92.5989 57.3689 91.7307 56.5007C85.774 50.544 85.249 40.8114 88.4797 39.1961C89.7518 38.5499 90.8624 38.348 91.8114 38.449C98.2729 39.1759 97.5662 54.9863 94.0931 57.0862Z" fill="#F79C41"/>
<path d="M196.083 91.1098C195.659 91.3117 195.154 91.3521 194.609 91.2108C192.348 90.6252 189.4 87.1522 188.511 81.9224C188.006 78.8532 189.541 75.9052 191.54 74.9764C193.761 73.9264 196.568 75.3802 197.699 81.9224C198.365 85.6378 198.264 90.0195 196.083 91.1098Z" fill="#F79C41"/>
<path d="M185.159 181.126C178.193 188.658 169.975 195.018 160.848 199.864C159.818 199.359 158.889 198.612 158.526 197.542C158.203 196.593 158.344 195.382 159.333 193.847C163.109 187.89 166.905 178.703 175.548 178.158C178.072 177.996 180.071 178.299 181.666 178.865C183.2 179.43 184.331 180.238 185.159 181.126Z" fill="#F79C41"/>
<path d="M141.948 207.376C134.215 209.496 126.077 210.606 117.677 210.606C113.821 210.606 110.025 210.364 106.309 209.9C106.309 208.809 106.511 207.638 107.178 206.649C107.824 205.7 108.894 204.932 110.651 204.65C117.132 203.559 120.383 199.238 129.571 199.783C134.336 200.066 137.668 202.388 139.747 204.549C140.777 205.639 141.484 206.649 141.948 207.376Z" fill="#F79C41"/>
<path d="M130.197 39.8624C129.732 42.1643 125.835 42.9922 123.957 42.1239C123.553 41.9422 123.25 41.6797 123.089 41.3566C121.999 39.196 129.126 35.1576 130.116 38.6509C130.237 39.0951 130.257 39.4989 130.197 39.8624Z" fill="#F79C41"/>
<path d="M102.008 161.398C99.5852 160.187 97.6871 159.238 98.2323 164.104C98.7775 168.97 102.553 170.061 105.804 170.061C109.035 170.061 104.169 162.489 102.008 161.398Z" fill="#EF903A"/>
<path d="M57.1213 158.168C54.9607 157.622 54.9608 161.419 53.3454 165.195C51.73 168.97 53.8906 171.676 57.1213 171.676C60.3722 171.676 61.4424 159.238 57.1213 158.168Z" fill="#EF903A"/>
<path d="M47.3886 109.485C45.3088 108.536 43.0675 107.324 42.5223 109.485C41.9771 111.645 46.8434 117.602 49.5491 117.602C52.2549 117.602 53.3251 112.19 47.3886 109.485Z" fill="#EF903A"/>
<path d="M209.612 118.692C209.612 124.063 209.147 129.333 208.259 134.442C207.471 134.139 206.664 133.594 205.816 132.746C200.404 127.334 204.503 119.661 205.816 117.057C207.27 114.149 208.723 114.411 209.531 114.916C209.592 116.168 209.612 117.42 209.612 118.692Z" fill="#EF903A"/>
<path d="M153.922 124.629C150.792 124.245 149.056 126.789 153.922 128.95C158.788 131.13 158.243 125.174 153.922 124.629Z" fill="#EF903A"/>
<path d="M37.6562 100.297C36.2023 101.024 36.0408 104.073 39.8167 103.548C43.5927 103.003 40.8869 98.6819 37.6562 100.297Z" fill="#EF903A"/>
<path d="M114.446 62.4573C112.831 63.0025 110.671 64.6179 114.446 65.163C118.222 65.688 116.062 61.9121 114.446 62.4573Z" fill="#EF903A"/>
<path d="M123.634 62.4573C121.655 61.3063 121.473 66.7784 123.089 68.9389C124.704 71.0995 130.116 66.2332 123.634 62.4573Z" fill="#EF903A"/>
<path d="M119.452 86.983C117.473 85.832 117.292 91.3041 118.907 93.4646C120.522 95.6252 125.934 90.7589 119.452 86.983Z" fill="#EF903A"/>
<path d="M113.395 93.0406C111.416 91.8896 111.234 97.3617 112.85 99.5222C114.465 101.683 119.876 96.8165 113.395 93.0406Z" fill="#EF903A"/>
<path d="M125.51 84.9638C123.531 83.8128 123.349 89.2849 124.965 91.4454C126.58 93.606 131.992 88.7397 125.51 84.9638Z" fill="#EF903A"/>
<path d="M140.939 190.616C139.767 190.879 139.323 192.777 142.554 193.867C145.805 194.937 145.805 189.526 140.939 190.616Z" fill="#EF903A"/>
<path d="M93.891 199.804C92.2756 200.349 90.6401 201.419 93.891 202.509C97.1419 203.58 95.5064 199.259 93.891 199.804Z" fill="#EF903A"/>
<path d="M96.5968 120.308C93.8506 120.449 99.8477 124.083 101.463 124.629C103.078 125.174 107.945 119.762 96.5968 120.308Z" fill="#EF903A"/>
<path d="M185.28 106.254C183.927 107.304 186.371 113.281 188.531 112.736C190.692 112.19 190.147 102.458 185.28 106.254Z" fill="#EF903A"/>
<path d="M141.787 144.154C141.544 145.083 141.242 145.992 140.939 146.8C139.364 151.02 130.055 152.675 127.592 150.737C127.531 150.697 127.471 150.636 127.41 150.575C125.249 148.415 127.349 142.983 128.5 140.298C130.116 136.522 138.233 133.816 140.939 134.886C143.119 135.795 142.837 140.217 141.787 144.154Z" fill="#F79C41"/>
<path d="M159.381 108.445C159.139 109.374 158.836 110.282 158.533 111.09C156.958 115.31 147.649 116.966 145.186 115.027C145.125 114.987 145.065 114.927 145.004 114.866C142.844 112.705 144.944 107.274 146.095 104.588C147.71 100.812 155.827 98.1065 158.533 99.1767C160.714 100.085 160.431 104.507 159.381 108.445Z" fill="url(#paint4_linear_12_70)"/>
<path d="M47.3687 81.0542C47.2879 80.2061 47.4697 79.3984 47.9341 78.6715C50.4783 74.7946 60.5743 74.5321 69.8223 80.5897C79.0702 86.6474 82.9067 96.4405 80.3625 100.317L80.3423 100.338C80.4836 97.9751 79.4943 94.6636 76.0414 90.0396C67.0358 78.0254 50.6196 73.886 47.3687 81.0542Z" fill="#E27C37"/>
<path d="M107.602 144.074C107.481 144.821 107.218 145.527 106.834 146.174C106.612 145.245 104.613 137.955 95.5067 134.906C86.0568 131.756 73.3358 128.95 65.7637 134.906C63.3407 136.804 62.3109 138.763 62.008 140.54C61.2609 139.046 60.9782 137.531 61.2407 136.017C62.3917 129.394 73.5175 127.799 86.3193 130.04C99.121 132.261 108.753 137.451 107.602 144.074Z" fill="#E27C37"/>
<path d="M122.544 87.3137C112.488 90.7868 108.248 100.64 107.824 107.95C105.037 102.337 107.783 94.1992 114.608 88.8079C122.14 82.8513 132.418 80.0446 139.424 88.9089C139.465 88.9695 139.525 89.03 139.545 89.0906C136.517 86.7483 131.004 84.4061 122.544 87.3137Z" fill="#E27C37"/>
<path d="M141.787 144.154C141.686 140.237 140.717 135.815 136.618 137.067C132.418 138.359 127.652 145.972 127.612 150.737C127.551 150.697 127.491 150.636 127.43 150.575C125.27 148.415 127.37 142.983 128.521 140.298C130.136 136.522 138.253 133.816 140.959 134.886C143.119 135.795 142.837 140.217 141.787 144.154Z" fill="#E27C37"/>
<path d="M159.381 108.445C159.28 104.528 158.311 100.106 154.212 101.357C150.012 102.65 145.247 110.262 145.206 115.027C145.146 114.987 145.085 114.927 145.024 114.866C142.864 112.705 144.964 107.274 146.115 104.588C147.73 100.812 155.847 98.1065 158.553 99.1767C160.714 100.085 160.431 104.507 159.381 108.445Z" fill="url(#paint5_linear_12_70)"/>
<path d="M181.181 113.442C182.413 106.314 170.984 104.013 165.27 101.933C159.616 99.8732 155.739 100.6 154.164 101.085C156.668 97.0463 162.988 99.0049 169.066 100.297C181.242 102.882 183.847 109.505 181.181 113.442Z" fill="url(#paint6_linear_12_70)"/>
<path d="M149.581 65.688C149.46 65.4054 149.399 65.0823 149.359 64.739C152.771 67.0005 161.514 65.1631 166.34 62.9823C169.793 61.4073 169.228 59.1054 168.158 57.4497C169.43 58.2372 170.338 59.3275 170.682 60.8218C171.489 64.5169 151.297 69.989 149.581 65.688Z" fill="#E27C37"/>
<path d="M94.0931 57.0862C93.4066 57.4901 92.5989 57.3689 91.7307 56.5007C85.774 50.544 85.249 40.8114 88.4797 39.1961C89.7518 38.5499 90.8624 38.348 91.8114 38.449C90.499 38.6913 88.4797 39.8422 88.4797 44.6075C88.4797 50.0998 91.1249 54.6026 94.0931 57.0862Z" fill="#E27C37"/>
<path d="M130.197 39.8624C130.015 38.9336 129.288 38.0451 126.885 38.6509C124.926 39.1355 124.179 40.6297 123.957 42.1239C123.553 41.9422 123.25 41.6797 123.089 41.3566C121.999 39.196 129.126 35.1576 130.116 38.6509C130.237 39.0951 130.257 39.4989 130.197 39.8624Z" fill="#E27C37"/>
<path d="M98.3737 189.122C97.9093 186.214 95.2439 183.388 90.6401 180.864C84.6835 177.613 80.3624 174.382 76.5864 171.676C74.6076 170.263 71.8817 169.879 69.7413 169.839C73.6586 165.417 83.4719 173.372 88.4796 175.997C96.7381 180.318 101.261 186.356 98.3737 189.122Z" fill="#E27C37"/>
<path d="M147.158 177.956C146.29 175.795 143.665 174.907 139.303 174.907H124.159C118.364 174.907 118.001 178.259 118.001 178.42C117.839 177.996 117.738 177.552 117.677 177.067C117.132 172.201 127.41 173.029 132.822 172.746C142.978 172.221 147.138 175.008 147.158 177.956Z" fill="#E27C37"/>
<path d="M139.747 204.569C140.777 205.619 141.484 206.649 141.948 207.376C134.215 209.496 126.077 210.606 117.677 210.606C113.821 210.606 110.025 210.364 106.309 209.9C106.309 208.809 106.511 207.638 107.178 206.649C125.149 210.889 135.507 206.952 139.747 204.569Z" fill="#E27C37"/>
<path d="M185.159 181.126C178.193 188.658 169.975 195.018 160.848 199.864C159.818 199.36 158.89 198.612 158.526 197.542C173.61 191.888 180.132 181.651 181.666 178.885C183.201 179.43 184.332 180.238 185.159 181.126Z" fill="#E27C37"/>
<path d="M188.915 137.552C187.703 137.128 179.081 134.725 169.046 146.254C163.978 152.09 162.221 156.613 161.817 159.783C159.111 155.361 162.342 147.425 169.409 141.55C176.598 135.573 185.139 133.856 188.915 137.552Z" fill="#E27C37"/>
<path d="M194.609 91.1906C192.348 90.605 189.4 87.132 188.511 81.9023C188.006 78.8331 189.541 75.885 191.54 74.9562C190.672 76.1071 189.864 77.8638 190.127 80.2869C190.591 84.2041 192.065 88.1214 194.609 91.1906Z" fill="#E27C37"/>
<path d="M35.3947 159.702C34.7688 158.45 34.163 157.158 33.5976 155.866C36.1822 153.523 38.7264 149.243 35.4957 142.478C31.4977 134.099 29.5592 126.89 26.0054 125.436C26.0054 125.376 26.0054 125.335 25.9852 125.275C27.8429 125.032 30.3871 125.881 32.2448 131.11C34.6476 137.915 45.834 154.493 35.3947 159.702Z" fill="#E27C37"/>
<path opacity="0.35" d="M209.612 118.692C209.612 124.063 209.147 129.333 208.259 134.442C205.17 152.292 196.931 168.385 185.139 181.126C178.173 188.658 169.955 195.018 160.828 199.864C154.891 203.034 148.571 205.558 141.948 207.376C134.215 209.496 126.077 210.606 117.677 210.606C113.821 210.606 110.025 210.364 106.309 209.9C75.1731 206.063 48.8426 186.638 35.3947 159.682C30.1448 149.182 26.8535 137.552 25.9852 125.255C25.8237 123.074 25.7429 120.873 25.7429 118.672C25.7429 104.8 28.8121 91.655 34.3044 79.8628C35.1928 159.48 199.597 179.49 203.998 86.9704C207.209 95.7338 209.127 105.103 209.531 114.896C209.592 116.168 209.612 117.42 209.612 118.692Z" fill="url(#paint7_linear_12_70)"/>
<path opacity="0.45" d="M173.327 191.868C169.41 194.857 165.23 197.542 160.848 199.884C154.912 203.055 148.592 205.579 141.969 207.396C134.235 209.516 126.098 210.627 117.698 210.627C113.841 210.627 110.045 210.384 106.33 209.92C75.1934 206.083 48.8629 186.659 35.415 159.702C30.1651 149.202 26.8738 137.572 26.0055 125.275C25.844 123.094 25.7632 120.893 25.7632 118.692C25.7632 104.82 28.8324 91.6752 34.3246 79.883C39.2313 69.3428 46.0966 59.8929 54.4157 51.9978C28.7718 174.301 123.089 191.242 173.327 191.868Z" fill="url(#paint8_linear_12_70)"/>
<path d="M209.612 118.692C209.612 124.063 209.148 129.333 208.259 134.442C207.774 137.188 207.189 139.894 206.482 142.559C203.292 68.6159 153.216 26.576 80.9481 34.3903C92.1951 29.4837 104.633 26.7577 117.677 26.7577C157.314 26.7577 191.096 51.8363 203.999 87.0109C207.209 95.7742 209.127 105.143 209.531 114.936C209.592 116.168 209.612 117.42 209.612 118.692Z" fill="url(#paint9_linear_12_70)"/>
<defs>
<radialGradient id="paint0_radial_12_70" cx="0" cy="0" r="1" gradientUnits="userSpaceOnUse" gradientTransform="translate(119.002 118.904) scale(110.112 110.112)">
<stop stop-color="#FFD86C"/>
<stop offset="1" stop-color="#FFD160" stop-opacity="0"/>
</radialGradient>
<radialGradient id="paint1_radial_12_70" cx="0" cy="0" r="1" gradientUnits="userSpaceOnUse" gradientTransform="translate(113.627 70.0207) scale(140.377 140.377)">
<stop stop-color="#4E4D45"/>
<stop offset="1" stop-color="#76593D"/>
</radialGradient>
<linearGradient id="paint2_linear_12_70" x1="103.586" y1="54.3878" x2="91.2124" y2="90.3185" gradientUnits="userSpaceOnUse">
<stop stop-color="#DAD0C6"/>
<stop offset="1" stop-color="#746F69"/>
</linearGradient>
<linearGradient id="paint3_linear_12_70" x1="167.694" y1="98.6688" x2="167.694" y2="116.532" gradientUnits="userSpaceOnUse">
<stop stop-color="#7E31A6"/>
<stop offset="1" stop-color="#915C26"/>
</linearGradient>
<linearGradient id="paint4_linear_12_70" x1="152.123" y1="98.9409" x2="152.123" y2="115.833" gradientUnits="userSpaceOnUse">
<stop stop-color="#7E31A6"/>
<stop offset="1" stop-color="#915C26"/>
</linearGradient>
<linearGradient id="paint5_linear_12_70" x1="152.134" y1="98.9409" x2="152.134" y2="115.027" gradientUnits="userSpaceOnUse">
<stop stop-color="#49215E"/>
<stop offset="1" stop-color="#B7B7B7"/>
</linearGradient>
<linearGradient id="paint6_linear_12_70" x1="168.148" y1="98.6688" x2="168.148" y2="113.442" gradientUnits="userSpaceOnUse">
<stop stop-color="#49215E"/>
<stop offset="1" stop-color="#B7B7B7"/>
</linearGradient>
<linearGradient id="paint7_linear_12_70" x1="39.1559" y1="167.282" x2="201.738" y2="91.2184" gradientUnits="userSpaceOnUse">
<stop stop-color="#E27437"/>
<stop offset="1" stop-color="#E27437" stop-opacity="0.2"/>
</linearGradient>
<linearGradient id="paint8_linear_12_70" x1="99.9198" y1="251.657" x2="99.0228" y2="23.8266" gradientUnits="userSpaceOnUse">
<stop/>
<stop offset="1" stop-opacity="0.2"/>
</linearGradient>
<linearGradient id="paint9_linear_12_70" x1="199.454" y1="26.7172" x2="143.524" y2="88.6864" gradientUnits="userSpaceOnUse">
<stop/>
<stop offset="1" stop-color="#848484" stop-opacity="0.2"/>
</linearGradient>
</defs>
</svg>
