<svg width="165" height="177" viewBox="0 0 165 177" fill="none" xmlns="http://www.w3.org/2000/svg">
<path d="M79.931 0.43667C11.489 6.92191 -25.3524 88.4062 19.9844 144.045C40.9358 169.855 75.9226 182.622 110.407 173.743C128.881 168.981 144.855 158.416 156.234 144.667C205.927 84.9482 159.118 -7.11349 79.931 0.43667Z" fill="url(#paint0_radial_12_263)"/>
<path d="M88.247 152.194C64.1846 152.194 43.2212 138.864 32.3686 119.181C8.42584 75.7827 41.4503 23.0991 89.6589 24.6426C120.326 25.2648 146.231 47.8674 151.173 77.9245C157.658 116.716 127.685 152.194 88.247 152.194Z" fill="url(#paint1_radial_12_263)"/>
<g opacity="0.75">
<path d="M113.578 98.7203C110.933 98.0622 110.203 101.353 111.699 102.095C113.195 102.848 116.952 105.098 117.706 103.59C118.46 102.095 116.581 99.4742 113.578 98.7203Z" fill="#6B1192"/>
<path d="M139.842 70.9607C137.281 71.547 134.218 72.8392 136.838 74.7178C139.471 76.5963 143.587 75.8425 143.97 73.593C144.341 71.3316 144.724 69.8359 139.842 70.9607Z" fill="#6B1192"/>
<path d="M88.4385 131.362C82.9344 128.059 74.9295 126.863 74.1757 130.237C73.4219 133.611 78.6747 138.864 85.0523 138.11C91.4418 137.369 92.1956 133.611 88.4385 131.362Z" fill="#6B1192"/>
<path d="M106.386 149.573C101.421 151.045 96.2039 151.93 90.8075 152.134C92.0399 144.32 99.4704 146.785 103.443 147.862C104.604 148.185 105.573 148.819 106.386 149.573Z" fill="#6B1192"/>
<path d="M53.5474 130.991C55.9763 132.056 57.6754 126.863 54.3012 122.364C50.9269 117.865 49.4193 112.229 45.2912 111.105C41.1632 109.98 38.9137 124.613 53.5474 130.991Z" fill="#6B1192"/>
<path d="M37.0351 112.6C35.707 112.839 35.1566 115.603 38.1599 115.974C41.1632 116.357 41.1632 111.858 37.0351 112.6Z" fill="#6B1192"/>
<path d="M70.4304 97.2247C67.7861 96.9854 65.1776 98.3494 65.5486 101.353C65.9195 104.356 70.0475 101.353 71.9261 101.353C73.8047 101.353 74.5585 97.5956 70.4304 97.2247Z" fill="#6B1192"/>
<path d="M96.3236 62.3336C94.0502 61.2567 93.6912 66.0907 95.5698 66.8326C97.4483 67.5864 102.701 65.3249 96.3236 62.3336Z" fill="#6B1192"/>
</g>
<path d="M72.3091 86.7191C59.554 88.9686 57.6754 89.3395 46.0451 99.1032C38.3513 105.553 30.3225 103.471 25.7757 101.317C24.9262 97.1529 24.4714 92.8334 24.4714 88.4062C24.4714 70.2667 32.0456 53.886 44.2024 42.2796C46.7031 43.7633 49.2877 45.7735 51.2978 48.4538C56.9216 55.9561 55.7968 58.9594 72.3091 67.5864C88.8093 76.2134 85.0642 84.4696 72.3091 86.7191Z" fill="url(#paint2_linear_12_263)"/>
<path d="M145.896 61.0772C134.122 58.6124 126.094 71.9298 118.077 70.9606C108.696 69.8359 111.328 55.956 103.443 41.3224C99.4944 33.9996 99.2192 28.9262 99.9252 25.6956C120.302 29.4527 137.269 42.9018 145.896 61.0772Z" fill="url(#paint3_linear_12_263)"/>
<path d="M152.034 88.4062C152.034 113.163 137.939 134.616 117.335 145.194C112.632 137.763 120.254 132.247 129.336 126.492C140.595 119.361 130.09 116.357 131.956 104.727C133.835 93.0966 126.704 92.3428 130.078 82.591C132.483 75.6271 145.023 82.232 151.998 86.5874C152.022 87.1857 152.034 87.7959 152.034 88.4062Z" fill="url(#paint4_linear_12_263)"/>
<path d="M92.1955 107.73C85.3752 109.848 81.6899 101.724 73.0629 103.602C64.4358 105.481 57.3044 120.856 68.9348 120.485C80.5651 120.114 83.5685 118.607 92.1955 124.613C100.823 130.62 110.957 126.492 113.961 117.111C116.952 107.73 115.073 100.599 92.1955 107.73Z" fill="url(#paint5_linear_12_263)"/>
<path d="M106.446 79.5877C102.857 80.7364 101.947 82.591 103.072 84.8405C104.197 87.09 108.696 86.719 110.945 90.0933C113.195 93.4675 118.83 97.5956 120.326 90.0933C121.834 82.591 114.702 76.9553 106.446 79.5877Z" fill="url(#paint6_linear_12_263)"/>
<path opacity="0.5" d="M93.3204 60.0721C92.6503 65.0737 88.0676 60.0721 80.5653 58.5765C73.063 57.0808 70.0597 52.5698 73.4339 49.5665C76.8081 46.5632 81.3071 44.3137 85.8181 46.9342C90.3171 49.5665 94.0622 54.4484 93.3204 60.0721Z" fill="#6B1192"/>
<path d="M85.4351 30.4339C76.0542 30.4339 71.5553 35.6867 62.9282 38.69C57.7831 40.4728 53.7149 38.4028 51.262 36.4405C61.6958 28.998 74.4629 24.6187 88.259 24.6187C88.7376 24.6187 89.2042 24.6187 89.6709 24.6426C90.329 27.3468 90.0896 30.4339 85.4351 30.4339Z" fill="url(#paint7_linear_12_263)"/>
<path opacity="0.45" d="M148.995 107.922C143.79 124.135 132.268 137.524 117.335 145.194C113.853 146.977 110.191 148.448 106.386 149.585C101.421 151.057 96.2039 151.942 90.8075 152.146C89.958 152.182 89.1085 152.194 88.247 152.194C64.1846 152.194 43.2212 138.864 32.3686 119.181C29.3294 113.677 27.0799 107.67 25.7757 101.317C24.9262 97.1529 24.4714 92.8334 24.4714 88.4062C24.4714 80.7005 25.8355 73.3178 28.3363 66.4856C35.5514 88.0352 52.0636 115.843 89.5991 121C96.9219 122.005 103.766 122.137 110.156 121.586C125.83 120.21 138.729 114.73 148.995 107.922Z" fill="url(#paint8_linear_12_263)"/>
<path opacity="0.45" d="M152.034 88.4062C152.034 95.2145 150.969 101.772 148.995 107.922C143.79 124.135 132.268 137.524 117.335 145.194C113.853 146.977 110.191 148.448 106.386 149.585C101.421 151.057 96.2039 151.942 90.8075 152.146C89.9579 152.182 89.1084 152.194 88.2469 152.194C64.1845 152.194 43.2211 138.864 32.3685 119.181C43.4006 123.716 56.5386 126.815 72.1175 127.425C87.2298 128.024 99.7695 125.69 110.155 121.574C132.483 112.744 144.927 95.6572 151.675 81.5859C151.855 83.2252 151.963 84.9003 152.01 86.5755C152.022 87.1857 152.034 87.7959 152.034 88.4062Z" fill="url(#paint9_linear_12_263)"/>
<path d="M151.185 77.9604C151.185 77.9604 142.103 44.6966 100.344 33.7483C75.3124 27.1793 57.9386 33.1022 48.0432 38.8934C79.6438 13.096 127.972 23.3384 145.896 61.0772C150.06 69.8239 150.886 76.7399 151.185 77.9604Z" fill="url(#paint10_linear_12_263)"/>
<defs>
<radialGradient id="paint0_radial_12_263" cx="0" cy="0" r="1" gradientUnits="userSpaceOnUse" gradientTransform="translate(88.342 88.2802) scale(76.2174)">
<stop stop-color="#90DD6F"/>
<stop offset="1" stop-color="#B8FFA9" stop-opacity="0"/>
</radialGradient>
<radialGradient id="paint1_radial_12_263" cx="0" cy="0" r="1" gradientUnits="userSpaceOnUse" gradientTransform="translate(91.4136 63.4442) scale(77.4092 77.4092)">
<stop stop-color="#6B1192"/>
<stop offset="1" stop-color="#9D00FF"/>
</radialGradient>
<linearGradient id="paint2_linear_12_263" x1="46.3387" y1="-9.93469" x2="60.9707" y2="173.527" gradientUnits="userSpaceOnUse">
<stop stop-color="#36D3F2"/>
<stop offset="1" stop-color="#EAFAFE" stop-opacity="0"/>
</linearGradient>
<linearGradient id="paint3_linear_12_263" x1="117.913" y1="-15.6431" x2="132.545" y2="167.819" gradientUnits="userSpaceOnUse">
<stop stop-color="#CAEEF0"/>
<stop offset="1" stop-color="#B1E2F4" stop-opacity="0"/>
</linearGradient>
<linearGradient id="paint4_linear_12_263" x1="123.596" y1="-16.0965" x2="138.228" y2="167.365" gradientUnits="userSpaceOnUse">
<stop stop-color="#36B6F2"/>
<stop offset="1" stop-color="#36B6F2" stop-opacity="0"/>
</linearGradient>
<linearGradient id="paint5_linear_12_263" x1="78.9025" y1="-12.5319" x2="93.5344" y2="170.93" gradientUnits="userSpaceOnUse">
<stop stop-color="#7A8CB2"/>
<stop offset="1" stop-color="#FBFAFF" stop-opacity="0"/>
</linearGradient>
<linearGradient id="paint6_linear_12_263" x1="103.6" y1="-14.5019" x2="118.232" y2="168.96" gradientUnits="userSpaceOnUse">
<stop stop-color="#A9BBCD" stop-opacity="0.67"/>
<stop offset="1" stop-color="#1689DC" stop-opacity="0.33"/>
</linearGradient>
<linearGradient id="paint7_linear_12_263" x1="67.1674" y1="-11.5961" x2="81.7995" y2="171.866" gradientUnits="userSpaceOnUse">
<stop stop-color="#A0DFF4"/>
<stop offset="1" stop-color="#3665F2" stop-opacity="0"/>
</linearGradient>
<linearGradient id="paint8_linear_12_263" x1="78.5516" y1="170.983" x2="88.1187" y2="83.7538" gradientUnits="userSpaceOnUse">
<stop stop-color="#168E26"/>
<stop offset="1" stop-color="#168E26" stop-opacity="0.3"/>
</linearGradient>
<linearGradient id="paint9_linear_12_263" x1="84.9839" y1="167.233" x2="95.6764" y2="76.0646" gradientUnits="userSpaceOnUse">
<stop stop-color="#166F38"/>
<stop offset="1" stop-color="#16653B" stop-opacity="0.3"/>
</linearGradient>
<linearGradient id="paint10_linear_12_263" x1="134.571" y1="-10.5113" x2="94.4249" y2="68.6552" gradientUnits="userSpaceOnUse">
<stop stop-color="white"/>
<stop offset="1" stop-color="#FFFFB3" stop-opacity="0"/>
</linearGradient>
</defs>
</svg>
